<?xml version="1.0" standalone="no"?><!DOCTYPE svg PUBLIC "-//W3C//DTD SVG 1.1//EN" "http://www.w3.org/Graphics/SVG/1.1/DTD/svg11.dtd"><svg t="1697904575878" class="icon" viewBox="0 0 1024 1024" version="1.1" xmlns="http://www.w3.org/2000/svg" p-id="19316" width="18" height="18" xmlns:xlink="http://www.w3.org/1999/xlink"><path d="M128 223.7c0-52.8 42.9-95.7 95.7-95.7H800c52.8 0 95.7 42.9 95.7 95.7V800c0 52.8-42.9 95.7-95.7 95.7H223.7c-52.8 0-95.7-42.9-95.7-95.7V223.7z" fill="#FFFFFF" p-id="19317"></path><path d="M800 176c26.3 0 47.7 21.4 47.7 47.7V800c0 26.3-21.4 47.7-47.7 47.7H223.7c-26.3 0-47.7-21.4-47.7-47.7V223.7c0-26.3 21.4-47.7 47.7-47.7H800m0-48H223.7c-52.8 0-95.7 42.8-95.7 95.7V800c0 52.8 42.8 95.7 95.7 95.7H800c52.8 0 95.7-42.8 95.7-95.7V223.7c0-52.8-42.9-95.7-95.7-95.7z" fill="#c0c1c8" p-id="19318" data-spm-anchor-id="a313x.search_index.0.i45.73913a81zyPhLJ" class="selected"></path><path d="M319.9 487.8h383.8v48H319.9z" fill="#c0c1c8" p-id="19319" data-spm-anchor-id="a313x.search_index.0.i41.73913a81zyPhLJ" class="selected"></path><path d="M487.9 319.9h48v383.8h-48z" fill="#c0c1c8" p-id="19320" data-spm-anchor-id="a313x.search_index.0.i44.73913a81zyPhLJ" class="selected"></path></svg>